<svg width="1442" height="226" viewBox="0 0 1442 226" fill="none" xmlns="http://www.w3.org/2000/svg">
<path d="M361 225H181H1V151.474V132.626V78.6066V70.7615V26.4331V1H70.1649H163.827H257.488H351.15H444.812H538.473H632.135H730H819.458H913.12H1006.78H1100.44H1191.15H1284.21H1376.76H1440V24.7975V69.4299V78.6066V132.416V151.474V224.342L1261 225H1081H901H730H541H361Z" fill="url(#paint0_linear_102_1590)"/>
<path d="M541 225H730M541 225H361M541 225L570.914 151.474M361 225H181M361 225L419.254 151.474M181 225H1M181 225L267.593 151.474M901 225H1081M901 225H730M901 225L874.235 151.474M1081 225H1261M1081 225L1025.9 151.474M1261 225L1440 224.342M1261 225L1177.56 151.474M1441 225L1440 224.342M1 225L115.933 151.474M1 225V151.474M1 132.626V151.474M1 132.626V78.6066M1 132.626L106.263 78.6066M1 70.7615V26.4331M1 70.7615L108.282 24.7975M1 70.7615V78.6066M1 26.4331V1H70.1649M1 26.4331L5.44806 24.7975M70.1649 1H163.827M70.1649 1L5.44806 24.7975M163.827 1H257.488M163.827 1L108.282 24.7975M257.488 1H351.15M257.488 1L211.116 24.7975M351.15 1H444.812M351.15 1L313.95 24.7975M444.812 1H538.473M444.812 1L416.785 24.7975M538.473 1H632.135M538.473 1L519.619 24.7975M632.135 1H730M632.135 1L622.453 24.7975M730 1H819.458M730 1V24.7975M819.458 1H913.12M819.458 1L828.121 24.7975M913.12 1H1006.78M913.12 1L930.955 24.7975M1006.78 1H1100.44M1006.78 1L1033.79 24.7975M1100.44 1H1191.15M1100.44 1L1136.62 24.7975M1191.15 1H1284.21M1191.15 1L1236.21 24.7975M1284.21 1H1376.76M1284.21 1L1338.39 24.7975M1376.76 1H1440V24.7975M1376.76 1L1440 24.7975M1440 24.7975V69.4299M1440 24.7975H1338.39M1440 69.4299L1338.39 24.7975M1440 69.4299V78.6066M1440 132.416L1338.11 78.6066M1440 132.416V78.6066M1440 132.416V151.474M1440 224.342L1329.22 151.474M1440 224.342V151.474M730 225V151.474M1338.39 24.7975H1236.21M1236.21 24.7975L1338.11 78.6066M1236.21 24.7975H1136.62M1338.11 78.6066H1440M1338.11 78.6066H1218.43M1218.43 78.6066L1136.62 24.7975M1218.43 78.6066L1329.22 151.474M1218.43 78.6066H1094.86M1136.62 24.7975H1033.79M1329.22 151.474H1440M1329.22 151.474H1177.56M1177.56 151.474L1094.86 78.6066M1177.56 151.474H1025.9M1094.86 78.6066L1033.79 24.7975M1094.86 78.6066H971.283M1033.79 24.7975H930.955M930.955 24.7975L971.283 78.6066M930.955 24.7975H828.121M971.283 78.6066L1025.9 151.474M971.283 78.6066H847.709M1025.9 151.474H874.235M874.235 151.474L847.709 78.6066M874.235 151.474H730M847.709 78.6066L828.121 24.7975M847.709 78.6066H730M828.121 24.7975H730M730 151.474H570.914M730 151.474V78.6066M570.914 151.474L600.561 78.6066M570.914 151.474H419.254M730 78.6066H600.561M730 78.6066V24.7975M600.561 78.6066L622.453 24.7975M600.561 78.6066H476.986M730 24.7975H622.453M622.453 24.7975H519.619M519.619 24.7975L476.986 78.6066M519.619 24.7975H416.785M476.986 78.6066L419.254 151.474M476.986 78.6066H353.412M419.254 151.474H267.593M267.593 151.474L353.412 78.6066M267.593 151.474H115.933M353.412 78.6066L416.785 24.7975M353.412 78.6066H229.838M416.785 24.7975H313.95M313.95 24.7975L229.838 78.6066M313.95 24.7975H211.116M229.838 78.6066L115.933 151.474M229.838 78.6066H106.263M115.933 151.474H1M106.263 78.6066L211.116 24.7975M106.263 78.6066H1M211.116 24.7975H108.282M108.282 24.7975H5.44806" stroke="white" stroke-width="2"/>
<defs>
<linearGradient id="paint0_linear_102_1590" x1="721" y1="1" x2="721" y2="225" gradientUnits="userSpaceOnUse">
<stop stop-color="#BF7FEA"/>
<stop offset="1" stop-color="#FF8E90"/>
</linearGradient>
</defs>
</svg>
